<mxfile host="Electron" agent="Mozilla/5.0 (Windows NT 10.0; Win64; x64) AppleWebKit/537.36 (KHTML, like Gecko) draw.io/27.0.9 Chrome/134.0.6998.205 Electron/35.4.0 Safari/537.36" version="27.0.9">
  <diagram name="Page-1" id="6oNKckcs_LfKx75o0hvV">
    <mxGraphModel dx="1426" dy="841" grid="1" gridSize="10" guides="1" tooltips="1" connect="1" arrows="1" fold="1" page="1" pageScale="1" pageWidth="850" pageHeight="1100" math="0" shadow="0">
      <root>
        <mxCell id="0" />
        <mxCell id="1" parent="0" />
        <mxCell id="i_2me9WWOOrB4e6M6qqH-1" value="&lt;div&gt;&lt;br&gt;&lt;/div&gt;&lt;div&gt;&lt;br&gt;&lt;/div&gt;&lt;div&gt;&lt;br&gt;&lt;/div&gt;&lt;div&gt;&lt;br&gt;&lt;/div&gt;&lt;div&gt;&lt;br&gt;&lt;/div&gt;&lt;div&gt;&lt;br&gt;&lt;/div&gt;&lt;div&gt;&lt;br&gt;&lt;/div&gt;&lt;div&gt;&lt;br&gt;&lt;/div&gt;&lt;div&gt;&lt;br&gt;&lt;/div&gt;&lt;div&gt;&lt;br&gt;&lt;/div&gt;&lt;div&gt;&lt;br&gt;&lt;/div&gt;&lt;div&gt;&lt;br&gt;&lt;/div&gt;&lt;div&gt;&lt;br&gt;&lt;/div&gt;&lt;div&gt;&lt;br&gt;&lt;/div&gt;&lt;div&gt;&lt;br&gt;&lt;/div&gt;&lt;div&gt;&lt;br&gt;&lt;/div&gt;&lt;div&gt;&lt;br&gt;&lt;/div&gt;Background Image&amp;nbsp;" style="rounded=0;whiteSpace=wrap;html=1;" parent="1" vertex="1">
          <mxGeometry x="80" y="40" width="690" height="430" as="geometry" />
        </mxCell>
        <mxCell id="i_2me9WWOOrB4e6M6qqH-2" value="Navbar (Home, View Galleries, About, Contact, Login/Register (after you log in it will update to say My Account))" style="rounded=0;whiteSpace=wrap;html=1;" parent="1" vertex="1">
          <mxGeometry x="80" y="40" width="690" height="30" as="geometry" />
        </mxCell>
        <mxCell id="i_2me9WWOOrB4e6M6qqH-3" value="Copyright text for the background image of mine" style="text;html=1;align=center;verticalAlign=middle;whiteSpace=wrap;rounded=0;" parent="1" vertex="1">
          <mxGeometry x="293" y="430" width="265" height="30" as="geometry" />
        </mxCell>
        <mxCell id="i_2me9WWOOrB4e6M6qqH-4" value="&lt;b&gt;Upload New Photo to Gallery&lt;/b&gt;" style="text;html=1;align=center;verticalAlign=middle;whiteSpace=wrap;rounded=0;" parent="1" vertex="1">
          <mxGeometry x="339" y="60" width="173" height="70" as="geometry" />
        </mxCell>
        <mxCell id="eRQrzwvdtbooXBVtfo5M-14" value="Upload Photo" style="rounded=0;whiteSpace=wrap;html=1;" vertex="1" parent="1">
          <mxGeometry x="365" y="260" width="120" height="30" as="geometry" />
        </mxCell>
        <mxCell id="eRQrzwvdtbooXBVtfo5M-17" value="" style="rounded=0;whiteSpace=wrap;html=1;" vertex="1" parent="1">
          <mxGeometry x="425" y="130" width="160" height="20" as="geometry" />
        </mxCell>
        <mxCell id="eRQrzwvdtbooXBVtfo5M-18" value="" style="rounded=0;whiteSpace=wrap;html=1;" vertex="1" parent="1">
          <mxGeometry x="425" y="160" width="160" height="40" as="geometry" />
        </mxCell>
        <mxCell id="eRQrzwvdtbooXBVtfo5M-19" value="Title:" style="text;html=1;align=center;verticalAlign=middle;whiteSpace=wrap;rounded=0;" vertex="1" parent="1">
          <mxGeometry x="339" y="125" width="60" height="30" as="geometry" />
        </mxCell>
        <mxCell id="eRQrzwvdtbooXBVtfo5M-20" value="Description:" style="text;html=1;align=center;verticalAlign=middle;whiteSpace=wrap;rounded=0;" vertex="1" parent="1">
          <mxGeometry x="325" y="170" width="50" height="30" as="geometry" />
        </mxCell>
        <mxCell id="eRQrzwvdtbooXBVtfo5M-21" value="Photo:" style="text;html=1;align=center;verticalAlign=middle;whiteSpace=wrap;rounded=0;" vertex="1" parent="1">
          <mxGeometry x="339" y="207.5" width="40" height="30" as="geometry" />
        </mxCell>
        <mxCell id="eRQrzwvdtbooXBVtfo5M-22" value="Choose File" style="rounded=0;whiteSpace=wrap;html=1;" vertex="1" parent="1">
          <mxGeometry x="425" y="210" width="90" height="25" as="geometry" />
        </mxCell>
      </root>
    </mxGraphModel>
  </diagram>
</mxfile>
